<?xml version="1.0" standalone="no"?>
<!DOCTYPE svg PUBLIC "-//W3C//DTD SVG 20010904//EN"
 "http://www.w3.org/TR/2001/REC-SVG-20010904/DTD/svg10.dtd">
<svg version="1.0" xmlns="http://www.w3.org/2000/svg"
 width="225.000000pt" height="225.000000pt" viewBox="0 0 225.000000 225.000000"
 preserveAspectRatio="xMidYMid meet">
<metadata>
Created by potrace 1.14, written by Peter Selinger 2001-2017
</metadata>
<g transform="translate(0.000000,225.000000) scale(0.100000,-0.100000)"
fill="#000000" stroke="none">
<path d="M106 1973 c-18 -5 -19 -17 -12 -382 3 -207 7 -435 7 -508 1 -89 5
-133 13 -136 6 -2 121 4 256 14 135 10 434 32 665 49 563 40 523 34 529 73 5
31 16 199 36 522 5 88 12 206 16 263 l6 102 -720 0 c-396 0 -732 2 -748 4 -16
2 -38 2 -48 -1z"/>
<path d="M1646 1718 c-3 -46 -13 -218 -22 -383 -9 -165 -19 -303 -22 -306 -7
-6 -399 -38 -487 -40 -38 -1 -39 -1 -10 -8 29 -7 337 -141 514 -222 47 -22 92
-37 102 -34 12 4 20 20 23 48 5 37 31 449 56 867 5 80 9 146 9 147 1 1 45 4
99 6 59 2 29 4 -80 5 l-176 2 -6 -82z m117 55 c-7 -2 -21 -2 -30 0 -10 3 -4 5
12 5 17 0 24 -2 18 -5z"/>
<path d="M2200 1758 c0 -18 -7 -105 -15 -193 -42 -463 -66 -758 -63 -780 2
-17 7 -22 16 -16 9 5 24 142 52 481 46 542 46 540 25 540 -10 0 -15 -10 -15
-32z"/>
<path d="M973 973 c9 -2 25 -2 35 0 9 3 1 5 -18 5 -19 0 -27 -2 -17 -5z"/>
<path d="M760 961 l-75 -6 0 -80 0 -80 -94 -10 c-53 -6 -96 -15 -98 -21 -2 -6
33 -42 78 -79 l82 -68 276 27 c152 15 286 29 299 32 42 9 21 32 -80 88 -102
57 -104 57 -175 54 l-73 -3 0 77 0 78 -32 -2 c-18 -1 -67 -4 -108 -7z"/>
<path d="M583 943 c9 -2 23 -2 30 0 6 3 -1 5 -18 5 -16 0 -22 -2 -12 -5z"/>
<path d="M433 933 c9 -2 25 -2 35 0 9 3 1 5 -18 5 -19 0 -27 -2 -17 -5z"/>
<path d="M303 923 c15 -2 37 -2 50 0 12 2 0 4 -28 4 -27 0 -38 -2 -22 -4z"/>
<path d="M168 913 c12 -2 30 -2 40 0 9 3 -1 5 -23 4 -22 0 -30 -2 -17 -4z"/>
<path d="M1916 877 c-20 -15 -12 -47 13 -47 13 0 13 2 2 9 -7 5 -10 14 -6 20
5 9 10 9 21 0 7 -6 11 -16 7 -23 -4 -6 1 -5 10 3 13 10 14 18 6 32 -11 22 -28
24 -53 6z"/>
<path d="M1920 802 c0 -5 7 -9 15 -9 8 0 15 4 15 9 0 4 -7 8 -15 8 -8 0 -15
-4 -15 -8z"/>
<path d="M1668 623 c7 -3 16 -2 19 1 4 3 -2 6 -13 5 -11 0 -14 -3 -6 -6z"/>
<path d="M1793 605 c0 -8 4 -12 9 -9 5 3 20 -2 34 -11 14 -9 30 -15 35 -13 6
2 -10 13 -34 25 -33 16 -44 18 -44 8z"/>
<path d="M1490 601 c0 -9 53 -32 58 -26 3 3 0 5 -7 5 -7 0 -10 4 -7 9 3 5 -5
11 -19 13 -14 3 -25 2 -25 -1z"/>
<path d="M1737 599 c7 -7 15 -10 18 -7 3 3 -2 9 -12 12 -14 6 -15 5 -6 -5z"/>
<path d="M1425 590 c-4 -6 3 -10 14 -10 11 0 23 -4 26 -10 3 -5 11 -10 16 -10
14 0 -11 24 -33 33 -10 3 -20 2 -23 -3z"/>
<path d="M1593 587 c0 -7 9 -14 20 -14 11 -1 25 -7 30 -12 8 -8 2 -11 -20 -11
-18 0 -35 5 -38 10 -3 6 -11 10 -17 10 -7 0 -6 -6 2 -15 10 -13 9 -15 -9 -15
-12 0 -32 5 -43 11 -12 6 -18 7 -14 1 15 -24 -30 -19 -80 9 -46 25 -60 29 -82
20 l-27 -9 27 -1 c15 -1 48 -13 74 -27 47 -27 47 -27 150 -14 l103 12 56 -27
c30 -15 55 -30 55 -32 0 -3 -18 -3 -40 0 -34 4 -39 3 -29 -9 6 -7 21 -12 33
-10 11 3 37 5 56 6 34 1 34 1 15 16 -11 9 -33 21 -49 26 -28 11 -28 11 -7 23
21 11 21 12 5 26 -16 12 -17 12 -12 -3 8 -20 -27 -32 -45 -15 -10 10 -102 57
-111 57 -1 0 -3 -6 -3 -13z"/>
<path d="M1670 595 c0 -4 60 -35 67 -35 3 0 -2 6 -9 13 -12 12 -58 29 -58 22z"/>
<path d="M1777 579 c7 -7 15 -10 18 -7 3 3 -2 9 -12 12 -14 6 -15 5 -6 -5z"/>
<path d="M1233 558 c15 -12 17 -18 7 -18 -9 0 -7 -5 8 -16 13 -9 26 -13 29
-10 4 3 1 6 -5 6 -7 0 -12 5 -12 11 0 5 6 7 13 3 8 -5 8 -2 -2 9 -13 17 -6 23
22 18 4 0 7 2 7 7 0 4 -20 7 -45 7 -45 0 -45 0 -22 -17z"/>
<path d="M1139 559 c-10 -6 -8 -9 8 -9 12 0 25 -4 28 -10 3 -5 -2 -10 -12 -10
-13 0 -10 -4 11 -15 36 -19 47 -19 22 0 -11 8 -15 15 -8 15 18 0 3 27 -18 33
-10 2 -24 1 -31 -4z"/>
<path d="M1819 562 c11 -8 9 -11 -8 -17 -18 -5 -19 -8 -7 -21 8 -8 20 -14 27
-14 8 0 5 6 -5 13 -16 12 -17 15 -4 20 9 3 26 0 39 -7 34 -17 59 -26 59 -21 0
3 -21 15 -47 27 -57 27 -73 33 -54 20z"/>
<path d="M1890 560 c0 -6 9 -10 19 -10 11 0 23 -4 26 -10 3 -5 11 -10 18 -10
6 0 3 6 -8 13 -29 20 -55 28 -55 17z"/>
<path d="M1070 555 c0 -3 12 -10 28 -16 16 -7 22 -13 14 -16 -10 -4 -10 -8 -1
-19 6 -8 16 -14 21 -14 6 0 5 7 -2 15 -10 12 -10 15 0 15 7 0 1 9 -13 20 -24
19 -47 26 -47 15z"/>
<path d="M970 540 c-11 -7 -11 -11 -1 -23 9 -12 9 -16 -1 -20 -11 -4 -10 -6 0
-6 7 -1 10 -5 7 -11 -3 -5 1 -10 11 -10 13 0 14 3 4 15 -10 12 -10 15 0 15 10
0 10 3 1 14 -9 11 -9 15 1 18 7 3 8 7 2 11 -5 3 -16 2 -24 -3z"/>
<path d="M1037 543 c-4 -3 -2 -12 4 -20 9 -10 8 -13 0 -13 -8 0 -7 -5 3 -15 8
-8 18 -15 22 -15 3 0 1 7 -6 15 -10 12 -9 15 6 15 18 1 18 1 1 11 -9 6 -15 14
-12 20 7 10 -8 13 -18 2z"/>
<path d="M1323 543 c-10 -3 -10 -8 1 -19 18 -18 32 -18 17 -1 -6 8 -8 17 -4
20 7 8 4 8 -14 0z"/>
<path d="M840 528 c0 -4 12 -8 28 -10 19 -2 27 -9 27 -22 0 -11 5 -21 12 -23
7 -3 10 5 9 21 -2 14 1 26 5 26 5 0 9 3 9 8 0 4 -20 7 -45 7 -25 0 -45 -3 -45
-7z"/>
<path d="M760 520 c0 -6 16 -10 35 -10 19 0 35 -4 35 -10 0 -5 -5 -10 -11 -10
-8 0 -8 -5 1 -15 7 -8 17 -15 22 -15 6 0 5 7 -2 15 -10 12 -10 15 1 15 10 0
10 3 -1 14 -19 17 -80 29 -80 16z"/>
<path d="M655 509 c-4 -6 -23 -9 -41 -7 -19 2 -34 1 -34 -3 0 -12 24 -16 52
-8 18 5 33 3 45 -7 24 -18 39 -18 24 0 -10 12 -8 15 11 19 21 4 21 4 -2 3 -14
0 -30 3 -37 7 -6 4 -15 2 -18 -4z"/>
<path d="M1981 506 c-7 -9 -4 -12 14 -11 31 0 41 11 16 18 -11 3 -25 0 -30 -7z"/>
<path d="M1236 495 c19 -14 19 -14 -1 -15 -19 -1 -19 -1 -1 -11 15 -9 16 -13
5 -21 -11 -8 -11 -9 1 -5 21 6 63 -11 55 -23 -3 -6 4 -10 16 -10 21 0 21 1 6
18 -10 10 -14 21 -11 25 3 3 -3 3 -13 1 -11 -3 -25 2 -32 10 -10 12 -10 16 -2
16 8 0 7 5 -3 15 -8 8 -20 15 -27 15 -7 0 -4 -6 7 -15z"/>
<path d="M1315 484 c3 -29 12 -41 23 -29 4 4 1 10 -5 12 -7 3 -13 9 -13 14 0
6 5 7 10 4 6 -3 10 -2 10 3 0 6 -6 12 -14 15 -10 4 -13 -1 -11 -19z"/>
<path d="M1390 500 c0 -5 5 -10 11 -10 5 0 7 5 4 10 -3 6 -8 10 -11 10 -2 0
-4 -4 -4 -10z"/>
<path d="M1575 500 c3 -5 15 -10 25 -10 11 0 28 -10 39 -22 17 -18 24 -19 43
-10 13 7 16 11 8 10 -8 -1 -34 8 -57 20 -45 24 -68 28 -58 12z"/>
<path d="M1926 503 c-3 -4 -25 -10 -49 -14 l-42 -6 42 -2 c46 -1 73 6 73 20 0
11 -14 12 -24 2z"/>
<path d="M2058 503 c7 -3 16 -2 19 1 4 3 -2 6 -13 5 -11 0 -14 -3 -6 -6z"/>
<path d="M510 494 c0 -9 35 -44 43 -44 5 0 4 6 -2 14 -9 11 -9 15 1 18 7 3 1
7 -14 10 -16 3 -28 4 -28 2z"/>
<path d="M755 490 c3 -5 1 -10 -6 -10 -8 0 -8 -4 1 -15 7 -8 17 -15 22 -15 6
0 5 7 -2 15 -9 11 -9 15 -1 15 7 0 9 5 6 10 -3 6 -11 10 -16 10 -6 0 -7 -4 -4
-10z"/>
<path d="M1170 485 c10 -13 9 -15 -11 -16 -15 0 -18 -3 -9 -6 8 -3 29 -20 45
-38 24 -27 34 -31 53 -24 26 10 30 23 5 15 -21 -6 -85 45 -66 51 10 4 9 8 -1
19 -19 19 -32 18 -16 -1z"/>
<path d="M430 480 c0 -5 5 -10 11 -10 7 0 18 -8 25 -17 7 -10 14 -13 14 -6 0
14 -27 43 -41 43 -5 0 -9 -4 -9 -10z"/>
<path d="M1096 475 c25 -19 40 -19 24 0 -7 8 -20 15 -28 15 -13 0 -12 -3 4
-15z"/>
<path d="M345 470 c-19 -8 -19 -9 3 -9 12 -1 22 4 22 9 0 6 -1 10 -2 9 -2 0
-12 -4 -23 -9z"/>
<path d="M604 467 c-14 -16 -7 -37 13 -37 13 0 13 3 3 15 -10 12 -9 15 4 15
10 0 14 5 11 10 -8 13 -17 12 -31 -3z"/>
<path d="M1030 465 c7 -8 20 -15 28 -15 13 0 12 3 -4 15 -25 19 -40 19 -24 0z"/>
<path d="M1555 469 c-3 -4 1 -10 7 -12 7 -3 3 -6 -9 -7 -13 -2 -29 -3 -35 -4
-7 -1 -22 4 -33 11 -27 18 -44 16 -20 -3 19 -15 17 -16 -25 -12 -25 3 -54 8
-64 13 -18 8 -18 7 1 -12 13 -13 30 -19 49 -17 16 1 63 6 104 10 93 8 110 16
64 30 -19 6 -37 8 -39 3z"/>
<path d="M283 453 c9 -10 40 -46 68 -81 47 -58 74 -81 84 -70 2 2 -11 20 -28
39 -18 20 -50 57 -71 82 -21 26 -45 47 -54 47 -14 0 -13 -2 1 -17z"/>
<path d="M676 455 c4 -8 17 -15 30 -15 12 0 28 -8 34 -17 7 -11 10 -12 7 -4
-2 8 -10 18 -18 21 -8 4 -24 12 -36 18 -19 10 -21 9 -17 -3z"/>
<path d="M883 459 c3 -9 1 -21 -5 -27 -13 -13 -2 -32 20 -32 14 1 14 2 -3 12
-17 10 -17 12 -3 17 15 5 15 8 1 26 -11 14 -14 15 -10 4z"/>
<path d="M956 455 c4 -8 1 -15 -6 -15 -10 0 -10 -3 0 -15 7 -8 22 -15 34 -14
19 0 19 1 -4 11 -24 9 -24 11 -5 17 19 8 19 8 -2 20 -19 10 -22 9 -17 -4z"/>
<path d="M1398 463 c6 -2 18 -2 25 0 6 3 1 5 -13 5 -14 0 -19 -2 -12 -5z"/>
<path d="M230 449 c0 -11 137 -199 145 -199 2 0 2 7 1 15 -3 20 -146 201 -146
184z"/>
<path d="M380 450 c0 -5 5 -10 11 -10 5 0 7 5 4 10 -3 6 -8 10 -11 10 -2 0 -4
-4 -4 -10z"/>
<path d="M805 440 c4 -11 2 -20 -4 -20 -6 0 -8 -7 -5 -15 4 -8 18 -15 33 -14
l26 0 -25 10 c-17 7 -21 12 -12 18 7 4 10 15 6 24 -9 24 -27 21 -19 -3z"/>
<path d="M1096 445 c10 -8 23 -15 28 -15 6 0 1 7 -10 15 -10 8 -23 15 -28 15
-6 0 -1 -7 10 -15z"/>
<path d="M440 445 c0 -18 19 -40 26 -32 4 4 0 15 -9 24 -9 10 -17 13 -17 8z"/>
<path d="M526 435 c4 -8 11 -15 16 -15 6 0 5 6 -2 15 -7 8 -14 15 -16 15 -2 0
-1 -7 2 -15z"/>
<path d="M1020 435 c7 -8 27 -14 44 -14 27 2 28 2 6 6 -14 3 -29 9 -34 14 -16
15 -29 10 -16 -6z"/>
<path d="M652 421 c7 -11 16 -17 20 -14 10 5 -10 33 -23 33 -5 0 -4 -9 3 -19z"/>
<path d="M570 415 c7 -8 17 -15 22 -15 6 0 5 7 -2 15 -7 8 -17 15 -22 15 -6 0
-5 -7 2 -15z"/>
<path d="M1346 421 c-4 -5 3 -7 14 -4 23 6 26 13 6 13 -8 0 -17 -4 -20 -9z"/>
<path d="M490 405 c7 -8 19 -15 27 -15 12 0 12 2 -1 15 -8 8 -20 15 -27 15 -9
0 -8 -4 1 -15z"/>
<path d="M715 410 c-3 -5 -1 -11 5 -15 6 -4 8 -9 6 -13 -9 -15 22 -42 39 -35
16 6 15 7 -6 15 -13 5 -19 12 -13 16 6 4 4 13 -8 24 -9 10 -20 13 -23 8z"/>
<path d="M1175 400 c-19 -8 -19 -9 3 -9 12 -1 22 4 22 9 0 6 -1 10 -2 9 -2 0
-12 -4 -23 -9z"/>
<path d="M557 382 c10 -11 27 -22 38 -26 20 -7 20 -8 1 -21 -17 -13 -16 -14
17 -12 37 3 64 17 33 17 -9 0 -19 7 -22 15 -4 8 -15 15 -25 15 -11 0 -22 7
-25 15 -4 8 -13 15 -20 15 -12 0 -11 -4 3 -18z"/>
<path d="M640 385 c7 -8 20 -15 28 -15 13 0 12 3 -4 15 -25 19 -40 19 -24 0z"/>
<path d="M1010 384 c-47 -7 -104 -13 -127 -13 -24 -1 -43 -6 -43 -11 0 -7 13
-9 33 -5 17 3 83 12 146 19 62 8 116 17 119 20 8 8 -30 5 -128 -10z"/>
<path d="M477 370 c3 -11 13 -20 22 -20 24 0 33 -11 21 -25 -9 -11 3 -13 43
-6 13 2 -32 41 -48 41 -9 0 -18 7 -21 15 -9 22 -23 18 -17 -5z"/>
<path d="M796 351 c-4 -5 3 -7 14 -4 23 6 26 13 6 13 -8 0 -17 -4 -20 -9z"/>
<path d="M685 340 c-18 -8 -17 -9 7 -9 15 -1 30 4 33 9 7 12 -12 12 -40 0z"/>
<path d="M450 310 c0 -5 5 -10 10 -10 6 0 10 5 10 10 0 6 -4 10 -10 10 -5 0
-10 -4 -10 -10z"/>
</g>
</svg>
